<?xml version="1.0" encoding="UTF-8" standalone="no"?>
<svg xmlns="http://www.w3.org/2000/svg" width="640" height="280" viewBox="0 0 640 280">
  <rect width="640" height="280" fill="#000000"/>

  <!-- Row 1 -->
  <text x="36" y="86" font-family="Segoe UI, Roboto, Arial" font-size="14" fill="#CCCCCC">Python</text>
  <rect x="120" y="72" width="460" height="18" rx="9" fill="#222222"/>
  <rect x="120" y="72" width="302" height="18" rx="9" fill="#FFFFFF"/>
  <text x="595" y="86" font-family="Segoe UI, Roboto, Arial" font-size="13" fill="#FFFFFF">42%</text>

  <!-- Row 2 -->
  <text x="36" y="126" font-family="Segoe UI, Roboto, Arial" font-size="14" fill="#CCCCCC">JavaScript</text>
  <rect x="120" y="112" width="460" height="18" rx="9" fill="#222222"/>
  <rect x="120" y="112" width="180" height="18" rx="9" fill="#FFFFFF"/>
  <text x="595" y="126" font-family="Segoe UI, Roboto, Arial" font-size="13" fill="#FFFFFF">25%</text>

  <!-- Row 3 -->
  <text x="36" y="166" font-family="Segoe UI, Roboto, Arial" font-size="14" fill="#CCCCCC">C++</text>
  <rect x="120" y="152" width="460" height="18" rx="9" fill="#222222"/>
  <rect x="120" y="152" width="75" height="18" rx="9" fill="#FFFFFF"/>
  <text x="595" y="166" font-family="Segoe UI, Roboto, Arial" font-size="13" fill="#FFFFFF">10%</text>

  <!-- Row 4 -->
  <text x="36" y="206" font-family="Segoe UI, Roboto, Arial" font-size="14" fill="#CCCCCC">HTML</text>
  <rect x="120" y="192" width="460" height="18" rx="9" fill="#222222"/>
  <rect x="120" y="192" width="58" height="18" rx="9" fill="#FFFFFF"/>
  <text x="595" y="206" font-family="Segoe UI, Roboto, Arial" font-size="13" fill="#FFFFFF">8%</text>

  <!-- Row 5 -->
  <text x="36" y="246" font-family="Segoe UI, Roboto, Arial" font-size="14" fill="#CCCCCC">Other</text>
  <rect x="120" y="232" width="460" height="18" rx="9" fill="#222222"/>
  <rect x="120" y="232" width="125" height="18" rx="9" fill="#FFFFFF"/>
  <text x="595" y="246" font-family="Segoe UI, Roboto, Arial" font-size="13" fill="#FFFFFF">15%</text>
</svg>
